<svg height="14" width="14" viewBox="0 0 24 24" fill="fill-blue-500" stroke="none" class="inline-block undefined" xmlns="http://www.w3.org/2000/svg"><g id="ExpandIcon"><path d="M23.2362 6.66955L17.3572 0.785926C16.3972 -0.174736 14.8776 -0.254642 13.8376 0.545821C13.2777 1.02603 12.9179 1.70639 12.9179 2.42698C12.878 2.90719 12.9979 3.38764 13.2378 3.82798L6.35893 9.19121L6.23897 9.07116C5.23913 8.07054 3.59932 8.07054 2.59947 9.07116C1.59963 10.0718 1.59963 11.7129 2.59947 12.7135L5.35911 15.4752L0.239919 20.5981C0.0800652 20.7581 0 20.9985 0 21.2386L0.159853 23.1197C0.199746 23.5201 0.479839 23.8001 0.879597 23.84L2.7593 24H2.83937C3.03939 24 3.23942 23.9199 3.39926 23.7599L8.51845 18.6367L11.2781 21.3985C12.2779 22.3991 13.9177 22.3991 14.9176 21.3985C15.9174 20.3979 15.9174 18.7568 14.9176 17.7562L14.7976 17.6364L20.1969 10.7122C21.1167 11.1924 22.2767 11.1525 23.0765 10.4721C23.6364 9.99193 23.9962 9.31156 23.9962 8.59098C24.0361 7.91032 23.7563 7.18994 23.2362 6.66955ZM2.5595 22.3592L1.71949 22.2791L1.63942 21.4384L6.4788 16.5953L7.39858 17.5158L2.5595 22.3592ZM13.7577 20.2781C13.3979 20.6383 12.7579 20.6383 12.398 20.2781L3.71938 11.5928C3.3595 11.2326 3.3595 10.5922 3.71938 10.232C4.07926 9.87187 4.71923 9.87187 5.0791 10.232L5.71906 10.8725L12.798 17.9167C12.8781 17.9969 12.918 18.0368 12.998 18.0767C13.0379 18.1568 13.0781 18.2367 13.1579 18.2769L13.7577 18.8772C14.1577 19.2778 14.1575 19.8778 13.7577 20.2781ZM13.6378 16.5157L7.4786 10.3518L14.3177 5.02854L18.957 9.67146L13.6378 16.5157ZM22.0364 9.27129C21.6766 9.59152 21.0765 9.5516 20.6767 9.15124L20.6368 9.11131L20.5969 9.07139L14.9578 3.38768L14.7976 3.22742C14.5976 3.02724 14.5175 2.78714 14.5175 2.50712C14.5175 2.22681 14.6375 1.98672 14.8774 1.78682C15.2373 1.46659 15.8373 1.50651 16.2371 1.90687L22.1162 7.79049C22.3162 7.99067 22.3963 8.23078 22.3963 8.51079C22.3966 8.83103 22.2365 9.07108 22.0364 9.27129Z"></path><path d="M22.0364 9.27129C21.6766 9.59152 21.0765 9.5516 20.6767 9.15124L20.6368 9.11131L20.5969 9.07139L14.9578 3.38768L14.7976 3.22742C14.5976 3.02724 14.5175 2.78714 14.5175 2.50712C14.5175 2.22681 14.6375 1.98672 14.8774 1.78682C15.2373 1.46659 15.8373 1.50651 16.2371 1.90687L22.1162 7.79049C22.3162 7.99067 22.3963 8.23078 22.3963 8.51079C22.3966 8.83103 22.2365 9.07108 22.0364 9.27129Z"></path><path d="M13.6378 16.5157L7.4786 10.3518L14.3177 5.02854L18.957 9.67146L13.6378 16.5157Z"></path><path d="M13.7577 20.2781C13.3979 20.6383 12.7579 20.6383 12.398 20.2781L3.71938 11.5928C3.3595 11.2326 3.3595 10.5922 3.71938 10.232C4.07926 9.87187 4.71923 9.87187 5.0791 10.232L5.71906 10.8725L12.798 17.9167C12.8781 17.9969 12.918 18.0368 12.998 18.0767C13.0379 18.1568 13.0781 18.2367 13.1579 18.2769L13.7577 18.8772C14.1577 19.2778 14.1575 19.8778 13.7577 20.2781Z"></path><path d="M2.5595 22.3592L1.71949 22.2791L1.63942 21.4384L6.4788 16.5953L7.39858 17.5158L2.5595 22.3592Z"></path></g></svg>